<svg xmlns="http://www.w3.org/2000/svg" viewBox="0 0 16 16" width="16" height="16">
  <g fill="#2fc186">
    <path d="M8.00,9.80 L14.50,8.80 A0.8,0.8 0 0 0 14.50,7.20 L8.00,6.20 Z"/>
    <path d="M6.73,9.27 L12.03,13.16 A0.8,0.8 0 0 0 13.16,12.03 L9.27,6.73 Z"/>
    <path d="M6.20,8.00 L7.20,14.50 A0.8,0.8 0 0 0 8.80,14.50 L9.80,8.00 Z"/>
    <path d="M6.73,6.73 L2.84,12.03 A0.8,0.8 0 0 0 3.97,13.16 L9.27,9.27 Z"/>
    <path d="M8.00,6.20 L1.50,7.20 A0.8,0.8 0 0 0 1.50,8.80 L8.00,9.80 Z"/>
    <path d="M9.27,6.73 L3.97,2.84 A0.8,0.8 0 0 0 2.84,3.97 L6.73,9.27 Z"/>
    <path d="M9.80,8.00 L8.80,1.50 A0.8,0.8 0 0 0 7.20,1.50 L6.20,8.00 Z"/>
    <path d="M9.27,9.27 L13.16,3.97 A0.8,0.8 0 0 0 12.03,2.84 L6.73,6.73 Z"/>
    <circle cx="8" cy="8" r="2"/>
  </g>
</svg>
